<?xml version="1.0" standalone="no"?>
<!DOCTYPE svg PUBLIC "-//W3C//DTD SVG 20010904//EN"
 "http://www.w3.org/TR/2001/REC-SVG-20010904/DTD/svg10.dtd">
<svg version="1.0" xmlns="http://www.w3.org/2000/svg"
 width="598.000000pt" height="86.000000pt" viewBox="0 0 598.000000 86.000000"
 preserveAspectRatio="xMidYMid meet">

<g transform="translate(0.000000,86.000000) scale(0.100000,-0.100000)"
fill="#000000" stroke="none">
<path d="M5037 770 c-20 -56 -25 -80 -16 -85 5 -4 9 -118 9 -276 l0 -269 424
0 c233 0 426 -4 428 -8 2 -4 26 -2 53 7 l50 14 -50 13 c-31 8 -51 10 -53 4 -2
-6 -12 -10 -23 -10 -18 0 -19 10 -19 245 l0 245 -45 0 -45 0 0 -245 c0 -211
-2 -245 -15 -245 -13 0 -15 31 -15 215 l0 215 -45 0 -46 0 1 -187 c0 -104 1
-200 0 -215 0 -21 -5 -28 -20 -28 -19 0 -20 7 -20 125 l0 126 -46 -2 -45 -3 2
-120 c2 -107 1 -121 -14 -124 -15 -3 -17 9 -17 107 l0 111 -45 0 -45 0 0 -110
c0 -103 -1 -110 -20 -110 -19 0 -20 7 -20 96 l0 95 -42 -3 -43 -3 0 -73 c0
-53 3 -71 12 -68 15 6 27 -10 17 -25 -4 -8 -9 -7 -15 2 -6 11 -9 10 -15 -4
-12 -31 -34 -20 -34 18 0 35 0 35 -45 35 -45 0 -45 0 -45 -35 0 -33 -2 -35
-36 -35 -41 0 -44 -7 47 115 l68 90 140 34 140 34 67 100 c76 114 73 112 252
153 67 15 122 31 122 36 0 4 -6 6 -12 4 -7 -3 -75 -19 -151 -36 -76 -18 -144
-38 -150 -45 -7 -7 -41 -55 -76 -107 l-64 -94 -138 -33 -138 -33 -73 -96 -73
-97 -3 244 c-1 134 2 249 6 255 5 6 4 30 -3 56 -7 27 -15 39 -18 30z m630
-278 l-4 -37 -1 42 c-1 23 -6 45 -12 48 -5 3 -10 14 -10 23 1 11 6 8 16 -11 9
-16 13 -44 11 -65z m42 65 c-1 -17 -2 -18 -6 -4 -2 9 -9 17 -14 17 -6 0 -7 -4
-4 -10 3 -5 2 -10 -3 -10 -23 0 -18 26 4 28 19 1 24 -3 23 -21z m-289 -204 c0
-15 -2 -15 -9 -4 -7 11 -10 7 -14 -15 l-4 -29 -2 33 c-1 22 3 32 14 32 8 0 15
-8 15 -17z m-145 -73 c-4 -6 7 -13 24 -16 39 -8 40 -20 2 -26 -23 -3 -31 0
-35 16 -5 19 0 36 10 36 3 0 2 -5 -1 -10z m145 -75 c0 -8 -7 -15 -15 -15 -13
0 -14 3 -3 15 16 18 18 18 18 0z m33 2 c3 -8 1 -20 -4 -28 -5 -8 -9 -9 -10 -4
0 6 -2 18 -4 28 -4 20 10 23 18 4z m-273 -1 c0 -9 -30 -14 -35 -6 -4 6 3 10
14 10 12 0 21 -2 21 -4z m483 -10 c4 -10 1 -13 -8 -9 -8 3 -12 9 -9 14 7 12
11 11 17 -5z m-333 -6 c0 -5 -7 -7 -15 -4 -8 4 -15 8 -15 10 0 2 7 4 15 4 8 0
15 -4 15 -10z"/>
<path d="M3480 426 l0 -246 30 0 30 0 -2 243 -3 242 -27 3 -28 3 0 -245z"/>
<path d="M2366 641 c-7 -11 -176 -450 -176 -456 0 -3 15 -5 33 -5 33 0 35 2
52 60 l18 60 108 0 107 0 19 -57 c18 -54 22 -58 53 -61 28 -3 32 -1 27 15 -10
34 -158 416 -168 435 -10 19 -63 26 -73 9z m78 -172 c20 -55 36 -105 36 -110
0 -5 -36 -9 -80 -9 -44 0 -80 3 -80 8 0 15 75 212 81 212 4 0 23 -45 43 -101z"/>
<path d="M2800 529 c-13 -5 -33 -17 -42 -26 -17 -15 -18 -15 -18 5 0 18 -6 22
-30 22 l-30 0 0 -175 0 -175 30 0 30 0 0 124 c0 115 2 127 23 151 13 15 37 28
59 32 30 4 41 1 62 -20 25 -25 26 -30 26 -157 l0 -130 31 0 31 0 -4 145 -3
145 -31 31 c-34 34 -91 46 -134 28z"/>
<path d="M3133 528 c-39 -8 -43 -12 -43 -38 l0 -29 35 15 c83 34 175 2 175
-62 0 -11 -16 -14 -67 -14 -86 0 -131 -21 -156 -73 -54 -110 90 -205 194 -128
29 21 29 21 29 1 0 -16 7 -20 30 -20 l30 0 0 120 c0 151 -13 190 -74 220 -45
21 -85 24 -153 8z m167 -192 c0 -69 -44 -116 -110 -116 -56 0 -89 60 -57 104
15 20 62 33 125 35 38 1 42 -1 42 -23z"/>
<path d="M4444 521 c-23 -10 -52 -34 -65 -52 -21 -29 -24 -46 -24 -115 0 -72
3 -84 27 -116 50 -65 165 -86 253 -46 30 14 38 65 8 53 -117 -48 -212 -21
-229 63 l-6 32 131 0 131 0 0 37 c0 60 -36 122 -84 144 -52 23 -90 23 -142 0z
m137 -60 c16 -16 29 -39 29 -50 0 -20 -5 -21 -100 -21 -57 0 -100 4 -100 10 0
25 26 60 54 74 48 24 84 20 117 -13z"/>
<path d="M4893 533 c-12 -2 -33 -15 -47 -28 l-26 -24 0 24 c0 21 -5 25 -30 25
l-30 0 0 -175 0 -175 29 0 29 0 3 125 c4 121 5 125 32 152 22 23 36 28 73 27
43 -1 45 0 42 25 -3 27 -26 34 -75 24z"/>
<path d="M3623 513 c3 -10 34 -88 70 -173 52 -126 62 -161 55 -180 -14 -39
-39 -60 -70 -60 -23 0 -28 -4 -28 -25 0 -23 4 -25 44 -25 36 0 49 5 68 29 20
23 188 422 188 445 0 3 -12 6 -27 6 -26 0 -31 -8 -82 -135 -29 -74 -55 -135
-56 -135 -2 0 -26 61 -55 135 -51 131 -54 135 -83 135 -23 0 -28 -4 -24 -17z"/>
<path d="M4010 505 l0 -25 101 0 c113 0 112 3 38 -78 -115 -127 -149 -172
-149 -196 l0 -26 140 0 140 0 0 25 0 25 -106 0 -105 0 105 121 c82 94 106 128
106 150 l0 29 -135 0 -135 0 0 -25z"/>
</g>
</svg>
